<svg xmlns="http://www.w3.org/2000/svg" viewBox="0 0 500 500"><g id="freepik--background-simple--inject-61"><path d="M165.19,75.75s-75.77,38.61-113.56,98.1-34.8,136,11.12,192.78S196.44,416,269.93,452s154.57,28.58,189.32-47.66S441.6,299.57,432.6,211.36,344.07-6,165.19,75.75Z" style="fill:#92E3A9"></path><path d="M165.19,75.75s-75.77,38.61-113.56,98.1-34.8,136,11.12,192.78S196.44,416,269.93,452s154.57,28.58,189.32-47.66S441.6,299.57,432.6,211.36,344.07-6,165.19,75.75Z" style="fill:#fff;opacity:0.7000000000000001"></path></g><g id="freepik--Icons--inject-61"><path d="M467.2,273.5h-4.15v-.71a7.32,7.32,0,0,0-7.31-7.31h-2.81a7.32,7.32,0,0,0-7.32,7.31v.71h-4.14a4.2,4.2,0,0,0-4.21,4.21v19.18a4.21,4.21,0,0,0,4.21,4.21H467.2a4.22,4.22,0,0,0,4.21-4.21V277.71A4.21,4.21,0,0,0,467.2,273.5Zm-19.59-.71a5.32,5.32,0,0,1,5.32-5.31h2.81a5.31,5.31,0,0,1,5.31,5.31v.71H447.61Z" style="fill:#263238"></path><polygon points="462 285.34 456.7 285.34 456.7 280.05 451.96 280.05 451.96 285.34 446.66 285.34 446.66 290.09 451.96 290.09 451.96 295.38 456.7 295.38 456.7 290.09 462 290.09 462 285.34" style="fill:#fff"></polygon><path d="M459,159.2h0a6.27,6.27,0,0,1-6.27-6.28V136a6.27,6.27,0,0,1,6.27-6.28h0a6.27,6.27,0,0,1,6.27,6.28v16.89A6.27,6.27,0,0,1,459,159.2Z" style="fill:#fff;stroke:#263238;stroke-linecap:round;stroke-linejoin:round"></path><path d="M459,159.2h0a6.27,6.27,0,0,1-6.27-6.28v-8.45h12.54v8.45A6.27,6.27,0,0,1,459,159.2Z" style="fill:#263238;stroke:#263238;stroke-linecap:round;stroke-linejoin:round"></path><path d="M427.46,134.28h0a6.26,6.26,0,0,1,1-8.82l13.17-10.58a6.29,6.29,0,0,1,8.83,1h0a6.28,6.28,0,0,1-1,8.82l-13.18,10.57A6.27,6.27,0,0,1,427.46,134.28Z" style="fill:#fff;stroke:#263238;stroke-linecap:round;stroke-linejoin:round"></path><path d="M427.46,134.28h0a6.26,6.26,0,0,1,1-8.82l6.59-5.29,7.85,9.79-6.59,5.28A6.27,6.27,0,0,1,427.46,134.28Z" style="fill:#263238;stroke:#263238;stroke-linecap:round;stroke-linejoin:round"></path><path d="M364.75,88.24a3.75,3.75,0,0,0-2.18.7L348,77.63a8.15,8.15,0,0,0-.46-8.5l8.9-11.38a3.78,3.78,0,1,0-2.42-3.52,3.69,3.69,0,0,0,.69,2.17l-8.66,11.09a8.17,8.17,0,0,0-13.42,5.8H322.51a3.78,3.78,0,1,0-.39,2.19h10.7a8.18,8.18,0,0,0,13.92,3.92l14.49,11.27a3.77,3.77,0,1,0,3.52-2.43Z" style="fill:#263238"></path><path d="M68.78,159.32h0a4.58,4.58,0,0,1-4.57-4.57v-38h9.14v38A4.57,4.57,0,0,1,68.78,159.32Z" style="fill:#fff;stroke:#263238;stroke-linecap:round;stroke-linejoin:round"></path><path d="M68.78,159.32h0a4.58,4.58,0,0,1-4.57-4.57V131.38h9.14v23.37A4.57,4.57,0,0,1,68.78,159.32Z" style="fill:#263238;stroke:#263238;stroke-linecap:round;stroke-linejoin:round"></path><rect x="62.91" y="114.53" width="11.75" height="3.33" style="fill:#fff;stroke:#263238;stroke-linecap:round;stroke-linejoin:round"></rect><path d="M54.93,159.32h0a4.58,4.58,0,0,1-4.57-4.57v-38H59.5v38A4.57,4.57,0,0,1,54.93,159.32Z" style="fill:#fff;stroke:#263238;stroke-linecap:round;stroke-linejoin:round"></path><path d="M54.93,159.32h0a4.58,4.58,0,0,1-4.57-4.57V131.38H59.5v23.37A4.57,4.57,0,0,1,54.93,159.32Z" style="fill:#263238;stroke:#263238;stroke-linecap:round;stroke-linejoin:round"></path><rect x="49.06" y="114.53" width="11.75" height="3.33" style="fill:#fff;stroke:#263238;stroke-linecap:round;stroke-linejoin:round"></rect><path d="M186.78,77.07l3.64-8.74a.77.77,0,0,1,.73-.46.75.75,0,0,1,.68.53l4.41,14.54,3.36-10.71a.75.75,0,0,1,.7-.53.8.8,0,0,1,.72.5l1.87,5.38H213a12.21,12.21,0,0,0,3.38-8A11.33,11.33,0,0,0,194,67a11.33,11.33,0,0,0-22.36,2.59,12.36,12.36,0,0,0,2.95,7.53Z" style="fill:#263238"></path><path d="M202.36,79.08a.75.75,0,0,1-.71-.5l-1.3-3.74-3.41,10.87a.76.76,0,0,1-.72.53h0a.74.74,0,0,1-.71-.54L191,70.83l-3,7.28a.75.75,0,0,1-.69.46H175.8c2.47,2.76,5.55,5.2,7.85,7.47,3.48,3.44,6.89,7,10.44,10.32,4.55-4.49,9.13-9,13.64-13.49,1.25-1.25,2.61-2.49,3.87-3.79Z" style="fill:#263238"></path><rect x="36.2" y="287.7" width="5.19" height="16.19" transform="translate(-21.51 587.97) rotate(-160.87)" style="fill:#fff;stroke:#263238;stroke-miterlimit:10"></rect><rect x="31.63" y="303.36" width="8.01" height="3.05" transform="translate(-30.62 604.62) rotate(-160.87)" style="fill:#fff;stroke:#263238;stroke-miterlimit:10"></rect><rect x="38.04" y="264.83" width="12.83" height="29.33" transform="translate(-5.16 558.11) rotate(-160.87)" style="fill:#fff;stroke:#263238;stroke-miterlimit:10"></rect><rect x="41.87" y="265.19" width="9.47" height="16.19" transform="translate(1.06 546.75) rotate(-160.87)" style="fill:#263238;stroke:#263238;stroke-miterlimit:10"></rect><rect x="40.4" y="275.58" width="5.19" height="16.19" transform="translate(-9.36 565.77) rotate(-160.87)" style="fill:#263238;stroke:#263238;stroke-miterlimit:10"></rect><rect x="32.91" y="289.78" width="14.66" height="3.67" transform="translate(-17.31 580.31) rotate(-160.87)" style="fill:#fff;stroke:#263238;stroke-miterlimit:10"></rect><rect x="46.74" y="259.44" width="7.64" height="4.89" transform="translate(12.49 525.88) rotate(-160.87)" style="fill:#fff;stroke:#263238;stroke-miterlimit:10"></rect><rect x="42.23" y="262.94" width="14.66" height="3.67" transform="translate(9.6 531.16) rotate(-160.87)" style="fill:#fff;stroke:#263238;stroke-miterlimit:10"></rect><line x1="51.42" y1="258.95" x2="57.22" y2="242.21" style="fill:none;stroke:#263238;stroke-miterlimit:10"></line></g><g id="freepik--character-3--inject-61"><ellipse cx="373.9" cy="455.2" rx="52.33" ry="11.8" style="fill:#263238;stroke:#263238;stroke-linecap:round;stroke-linejoin:round"></ellipse><path d="M333.55,188.48s-7.08,4.33-7,6.23-2.64,36.55-2.95,40.88-4.43,13.27-4.75,17.33.7,8.13,1.89,10,5.56,7.85,5.56,7.85l11.75-18.15a103.73,103.73,0,0,0,.18-11.91C338.05,232.06,333.55,188.48,333.55,188.48Z" style="fill:#fff;stroke:#263238;stroke-linecap:round;stroke-linejoin:round"></path><path d="M378.76,102.62s-12.5-.8-19.62,7.87-5.59,21.93-5.64,26-12.14,16-10.8,20.86,4.9,5.41,3.76,9.47-8.58,6.5-7.5,11.65,5,12.45,5,12.45l72,.49s2.57-7.58-.17-13.27-6.63-7.57-6-10.28,4.11-9.21,2.77-14.08-6-6.22-6.49-14.89-1.77-23-8.65-30S378.76,102.62,378.76,102.62Z" style="fill:#263238;stroke:#263238;stroke-linecap:round;stroke-linejoin:round"></path><path d="M356.62,436.73a64,64,0,0,1-8,11.92c-4.6,5.15-9.06,7.86-8.91,10.57s10.19,3.24,15.5,1.34,9.17-5.69,10.24-6,4.06,0,4.13-3.8-.51-14.62-.51-14.62Z" style="fill:#fff;stroke:#263238;stroke-linecap:round;stroke-linejoin:round"></path><path d="M355.19,460.56c5.32-1.9,9.17-5.69,10.24-6s4.06,0,4.13-3.8c0-2-.11-6-.25-9.27a9.45,9.45,0,0,1-8.1,5s-.1-1.9-3-5.14c-1.87-2.12-3.76-.45-4.86,1l-.89,1.34-.07.13h0a48,48,0,0,1-3.78,4.87c-4.6,5.15-9.06,7.86-8.91,10.57S349.88,462.46,355.19,460.56Z" style="fill:#fff;stroke:#263238;stroke-linecap:round;stroke-linejoin:round"></path><path d="M393.67,436.71a74.28,74.28,0,0,0,9.3,11.91c5.15,5.14,9.9,7.84,10,10.55s-9.84,3.25-15.36,1.36-9.78-5.68-10.87-5.95-4.07,0-4.54-3.78-1.06-14.62-1.06-14.62Z" style="fill:#fff;stroke:#263238;stroke-linecap:round;stroke-linejoin:round"></path><path d="M397.65,460.53c-5.51-1.89-9.78-5.68-10.87-5.95s-4.07,0-4.54-3.78c-.25-2-.53-6-.74-9.28a10.6,10.6,0,0,0,8.63,4.94s-.1-1.9,2.43-5.15c1.65-2.11,3.72-.45,5,1,.33.44.67.88,1,1.34l.09.13h0a59.77,59.77,0,0,0,4.3,4.87c5.15,5.14,9.9,7.84,10,10.55S403.17,462.42,397.65,460.53Z" style="fill:#fff;stroke:#263238;stroke-linecap:round;stroke-linejoin:round"></path><path d="M334.87,293.8s1.67,56.31,3.89,67.41,12.13,74.72,12.13,74.72a23.81,23.81,0,0,0,9.58,1.88H371.3l1-47.38.37-68.77,5.43,116.41s14.92.53,16.53.26,2.95-.54,2.95-.54l9.59-73.65,5.49-49,.3-19.49s-45.84-1.59-59.16-2.67S335,291.63,335,291.63Z" style="fill:#92E3A9;stroke:#263238;stroke-linecap:round;stroke-linejoin:round"></path><path d="M396.77,393.22c-.12.94-.24,1.81-.38,2.61" style="fill:none;stroke:#263238;stroke-linecap:round;stroke-linejoin:round"></path><path d="M398,325.43s.93,40.12-.7,61.9" style="fill:none;stroke:#263238;stroke-linecap:round;stroke-linejoin:round"></path><path d="M348.85,322.21s1.15,26.54,2.29,32.49" style="fill:none;stroke:#263238;stroke-linecap:round;stroke-linejoin:round"></path><path d="M391.58,305.3v20.26a43.83,43.83,0,0,0,7.93,1.37c4.11.27,11.78,0,11.78,0l.55-7.67Z" style="fill:#263238;stroke:#263238;stroke-linecap:round;stroke-linejoin:round"></path><path d="M335.72,320.9s10.41,3.29,14.79,3.56,8.48.82,8.48.82l-.54-5.47-23.28-2.19Z" style="fill:#263238;stroke:#263238;stroke-linecap:round;stroke-linejoin:round"></path><path d="M367.32,167.07l-8.17,9.21-22.66,16.53L341.32,293s18.06,4.86,33.56,6.21,35.43-2.2,35.43-2.2l-2.93-105s-8.82-13-13.34-16.51-6.59-6.76-12.58-7.3S367.32,167.07,367.32,167.07Z" style="fill:#92E3A9;stroke:#263238;stroke-linecap:round;stroke-linejoin:round"></path><path d="M357.84,172l-24.29,16.53,3.81,60.91-1.29,6.12-10.21,11.76,4.35,20.66-1.94,29.15s9.65,3.25,16.19,4.05a142.42,142.42,0,0,0,14.66.81l.84-39.8s3.23-66.07,3.61-69,3.75-46,3.75-46Z" style="fill:#fff;stroke:#263238;stroke-linecap:round;stroke-linejoin:round"></path><polyline points="358.23 174.49 346.47 203.98 359.16 209.25 347.18 211.43 357.79 253" style="fill:none;stroke:#263238;stroke-linecap:round;stroke-linejoin:round"></polyline><path d="M365.28,159.22s4.22,28.15,7.54,34.65,4.26,8.66,4.26,8.66,7.22-21.94,8.67-25.19,3-14.89,3-14.89S374.36,167.06,365.28,159.22Z" style="fill:#fff;stroke:#263238;stroke-linecap:round;stroke-linejoin:round"></path><path d="M365.28,159.22s.38,2.56,1,6.31c2.11,1.61,7.7,5.59,11.83,5.8,3.15.16,7.15-1.88,9.81-3.51.48-2.95.81-5.37.81-5.37S374.36,167.06,365.28,159.22Z" style="fill:#263238;stroke:#263238;stroke-linecap:round;stroke-linejoin:round"></path><path d="M359.55,139.76s-2.88-4.1-4.82,0,3,10.17,4.38,11c3.92,2.33,2.88-2,2.88-2Z" style="fill:#fff;stroke:#263238;stroke-linecap:round;stroke-linejoin:round"></path><path d="M395.32,141.53s2.43-4.24,4.81-.24-1.91,10.29-3.19,11.18c-3.66,2.53-3.08-1.81-3.08-1.81Z" style="fill:#fff;stroke:#263238;stroke-linecap:round;stroke-linejoin:round"></path><path d="M358.87,136.14s10.44-2.44,15.7-5.55a28.82,28.82,0,0,0,8.27-7.53s4.52,8.54,8.5,12,4.81,3.66,4.81,3.66-1.91,14.95-4.07,20.15-9.21,10.26-15.79,8.8c-3.74-.82-10.22-3.52-12.1-8.07S358.87,136.14,358.87,136.14Z" style="fill:#fff;stroke:#263238;stroke-linecap:round;stroke-linejoin:round"></path><path d="M385.51,147.63c-3.24.08-14.09.1-19.69-3.28a37.17,37.17,0,0,1-6.27-4.59c.2,1,.44,2.25.7,3.55l1.22.89,3.06,11.56-1.43.31a34.62,34.62,0,0,0,1.09,3.49c1.88,4.55,8.36,7.25,12.1,8.07,6.57,1.45,13.6-3.58,15.78-8.77a4.93,4.93,0,0,1-.43-3.27c.63-3.27,1.41-9,1.41-9l2.23-2c.12-.73.22-1.43.32-2.07C392.9,144.39,387.84,147.57,385.51,147.63Z" style="fill:#92E3A9;stroke:#263238;stroke-linecap:round;stroke-linejoin:round"></path><path d="M373.6,142.8s-3.49-4.24-8.07-3.85" style="fill:none;stroke:#263238;stroke-linecap:round;stroke-linejoin:round"></path><path d="M382.59,143.64a9.89,9.89,0,0,1,8.79-2.94" style="fill:none;stroke:#263238;stroke-linecap:round;stroke-linejoin:round"></path><path d="M363.52,136.83s5-2,9.43-1.06" style="fill:none;stroke:#263238;stroke-linecap:round;stroke-linejoin:round"></path><path d="M383,136.86a7.21,7.21,0,0,1,8.19,1.14" style="fill:none;stroke:#263238;stroke-linecap:round;stroke-linejoin:round"></path><path d="M370.24,141.41a1.18,1.18,0,0,1-1,1.34,1.24,1.24,0,0,1-1.1-1.29,1.17,1.17,0,0,1,1-1.34A1.25,1.25,0,0,1,370.24,141.41Z" style="fill:#263238"></path><path d="M388.35,142.71a1.15,1.15,0,0,1-1,1.34,1.23,1.23,0,0,1-1.1-1.28,1.15,1.15,0,0,1,1-1.34A1.23,1.23,0,0,1,388.35,142.71Z" style="fill:#263238"></path><path d="M415.28,182.74s5.83,2.7,8,7,19.52,50.89,19.44,54.41-5.82,7.58-11.2,8.13-13.22-9.2-14.39-10.82-1.38-20.58-1.38-20.58Z" style="fill:#fff;stroke:#263238;stroke-linecap:round;stroke-linejoin:round"></path><path d="M387.8,170.3l2.84,93.14,1,58.75a74.65,74.65,0,0,0,16.63,2.15,35.42,35.42,0,0,0,13.68-2.44s-1.7-36.55-2-42.51-2.28-17.33-2.28-17.33l-2.36-79.32S393.34,172.46,387.8,170.3Z" style="fill:#fff;stroke:#263238;stroke-linecap:round;stroke-linejoin:round"></path><polyline points="394.04 175.44 404.11 208.29 394.93 210.78 403.86 215.11 392.72 250.5" style="fill:#fff;stroke:#263238;stroke-linecap:round;stroke-linejoin:round"></polyline><path d="M401.06,205.49l-12.49,59.84s8.54,2.7,14.78,3,19.24.26,19.24.26l13-55.78S410,210.36,401.06,205.49Z" style="fill:#263238;stroke:#263238;stroke-linecap:round;stroke-linejoin:round"></path><path d="M405.41,261.26l.41-18.7,9.91,2.09S409.18,259.08,405.41,261.26Z" style="fill:#fff;stroke:#263238;stroke-linecap:round;stroke-linejoin:round"></path><path d="M413,235.8s-2.64-3.78-3.49-4.6-5.05-3.24-5.86-3.24-5.16-.27-6-.27-1.79,1.9-.93,2.71,3.85,1.08,3.85,1.08l2.05,3-9.25-.81s-1.54,1.63-1.19,3a18.41,18.41,0,0,0,1,2.71,42.77,42.77,0,0,0,.31,5.95c.36,1.63,2,2.17,4.25,3.52s9.78.54,9.78.54H411Z" style="fill:#fff;stroke:#263238;stroke-linecap:round;stroke-linejoin:round"></path><path d="M435.55,237.68l-24-3.23s-1.87,15.44-3.76,20.58-2.38,6.23-2.38,6.23,25.15-.56,31.08-1.1,9.26-4.07,9-8.94-3.23-9.75-3.23-9.75" style="fill:#fff;stroke:#263238;stroke-linecap:round;stroke-linejoin:round"></path><path d="M335.47,254.54s5.6,3.51,7,4.6,1.52,8.12,2.41,9.47-.16,2.17-1.78,2.17-4.07-5.14-4.07-5.14l-.1-1.9-11.44,3.8-3-5.14S327.89,254.54,335.47,254.54Z" style="fill:#fff;stroke:#263238;stroke-linecap:round;stroke-linejoin:round"></path></g><g id="freepik--character-2--inject-61"><ellipse cx="252.13" cy="455.2" rx="52.33" ry="11.8" style="fill:#263238;stroke:#263238;stroke-linecap:round;stroke-linejoin:round"></ellipse><path d="M293,174.79s6.86,34.43,8.08,40.8,3.46,21.51,6,28.15,1.71,15.14.44,17.53a39.59,39.59,0,0,1-4.37,5.84L294.63,256s-5.07-54.44-5.26-62.15S293,174.79,293,174.79Z" style="fill:#fff;stroke:#263238;stroke-linecap:round;stroke-linejoin:round"></path><path d="M297.52,254.64s5.4,3.37,6.35,4.8,1.63,3.25.89,4.8-4.77,6.23-5.79,7.14-1.88-2.72-2-5.84S297.52,254.64,297.52,254.64Z" style="fill:#fff;stroke:#263238;stroke-linecap:round;stroke-linejoin:round"></path><path d="M268.48,443.44s16.93,8.23,18,9.83S283.69,457,273.6,457s-10.39-1.33-14.4-2.39-12-.27-13.08-2.66.8-10.62.8-10.62Z" style="fill:#fff;stroke:#263238;stroke-linecap:round;stroke-linejoin:round"></path><path d="M246,447.69s14,8.5,12.77,11.42-11.35,2.92-16.68,2.12-16.66-8-17.26-10.62.9-6.64,9.11-7.43S246,447.69,246,447.69Z" style="fill:#fff;stroke:#263238;stroke-linecap:round;stroke-linejoin:round"></path><path d="M288.5,308.8s-8,61.61-9.39,70.64-5.8,23.37-8.18,34.26a181.53,181.53,0,0,0-3,19.39,18.18,18.18,0,0,0,.13,5.57c.34,2.66.39,4.78.39,4.78a72.54,72.54,0,0,1-10.84,1.86c-4.51.27-10.62.27-10.62.27l-2-17.26s1.49-25.5,2.37-32.93,1.82-65.86,1.78-67.46-.39-15.67-.39-15.67L276,309.33s3.72-10.62,9.31-10.09S288.5,308.8,288.5,308.8Z" style="fill:#fff;stroke:#263238;stroke-linecap:round;stroke-linejoin:round"></path><path d="M285.35,299.24c-5.59-.53-9.31,10.09-9.31,10.09l-27.28,2.92s.09,3.74.18,7.58c2.91.26,5.6.41,7.9.41A240.45,240.45,0,0,0,283,318.77l1.17-12.24L286,319l1.26-.41c.78-5.94,1.28-9.81,1.28-9.81S290.94,299.77,285.35,299.24Z" style="fill:#263238;stroke:#263238;stroke-linecap:round;stroke-linejoin:round"></path><path d="M220.3,310.66s0,.38.06,1.07c.37,7.26,2.57,49.33,3.24,57.09.75,8.5-3,17.79-2.81,25.49s2,49.4,2,49.4l2,6.9s4.7-3.18,9.21-3.18,12,.26,12,.26.39-5.58.35-7.43-.21-8.5-.21-8.5,7.63-34.79,8.09-37.71,6.38-53.38,6.34-55,1.25-24.17,1.25-24.17Z" style="fill:#fff;stroke:#263238;stroke-linecap:round;stroke-linejoin:round"></path><path d="M261.54,320.19c.17-3.08.29-5.28.29-5.28l-41.53-4.25s0,.38.06,1.07c0,.88.11,2.27.21,4,9.71,1.74,26.56,4.48,36.27,4.48C258.44,320.24,260,320.22,261.54,320.19Z" style="fill:#263238;stroke:#263238;stroke-linecap:round;stroke-linejoin:round"></path><path d="M250.9,147.6s-4.39.74-6.06,2.7a44,44,0,0,0-4.5,6.12c-.23.74-26.05,16.41-26.05,16.41l1.86,74.72s.77,11.51-.6,15.43a79,79,0,0,0-3.33,23.77c.24,9.55.86,25,.86,25s29.55,5.88,43.76,5.88A240.45,240.45,0,0,0,283,316.14l1.17-12.25,1.78,12.5,6.07-2,5-37s3.48-7.84,3.44-9.56.88-3.92-.13-5.39-2.81-4.41-2.81-4.41S293,177,293,174.79s-13.37-15.18-14.36-15.67-7.09-9.56-15-12S250.9,147.6,250.9,147.6Z" style="fill:#fff;stroke:#263238;stroke-linecap:round;stroke-linejoin:round"></path><polyline points="242.85 158.87 239.89 185.78 252.05 191.43 249.01 200.56 279.42 254" style="fill:none;stroke:#263238;stroke-linecap:round;stroke-linejoin:round"></polyline><polyline points="276.82 161.89 285.94 183.18 282.03 188.39 288.55 197.51 285.94 256.17" style="fill:none;stroke:#263238;stroke-linecap:round;stroke-linejoin:round"></polyline><path d="M249.77,151.28a56.54,56.54,0,0,0,2.83,15.43c2.63,7.35,20.06,58.06,20.06,58.06l11.27,39.68s-1.49-40.42-1.53-42.13-8.54-57.82-8.54-57.82-1.45-9.06-3.74-12.49S252.48,142.21,249.77,151.28Z" style="fill:#92E3A9;stroke:#263238;stroke-linecap:round;stroke-linejoin:round"></path><path d="M248.69,147.36s-7.09.73-5.84,11.51,2.9,18.13,2.9,18.13" style="fill:none;stroke:#263238;stroke-linecap:round;stroke-linejoin:round;stroke-width:2px"></path><path d="M244.88,191.21s3,12.49,5.05,15.92,8.25,6.86,12.66,6.86" style="fill:none;stroke:#263238;stroke-linecap:round;stroke-linejoin:round"></path><path d="M254.36,188.27s3.3,14.45,3.85,17.15-1.27,7.83-4.33,13" style="fill:none;stroke:#263238;stroke-linecap:round;stroke-linejoin:round"></path><path d="M253,220.13h0a1.36,1.36,0,0,1-.54-1.84l.35-.64a1.32,1.32,0,0,1,1.82-.49h0a1.37,1.37,0,0,1,.55,1.84l-.35.63A1.33,1.33,0,0,1,253,220.13Z" style="fill:#263238"></path><path d="M264.23,214.26h0a1.31,1.31,0,0,1-1.36,1.31l-.73,0a1.37,1.37,0,0,1-1.34-1.38h0a1.3,1.3,0,0,1,1.35-1.31l.73,0A1.39,1.39,0,0,1,264.23,214.26Z" style="fill:#263238"></path><path d="M244.9,192.19l-1.68-10.65a4.38,4.38,0,0,1,3.31-5h0a4.63,4.63,0,0,1,5.5,3.32l2.87,10.6" style="fill:none;stroke:#263238;stroke-linecap:round;stroke-linejoin:round;stroke-width:2px"></path><ellipse cx="283.94" cy="194.34" rx="4.38" ry="5.05" transform="translate(-17.97 29.29) rotate(-5.72)" style="fill:#fff;stroke:#263238;stroke-linecap:round;stroke-linejoin:round"></ellipse><path d="M272.13,151.85s9.63,13.55,12.7,41.17" style="fill:none;stroke:#263238;stroke-linecap:round;stroke-linejoin:round;stroke-width:2px"></path><ellipse cx="284.84" cy="193.42" rx="2.39" ry="2.79" transform="translate(-16.69 27.21) rotate(-5.31)" style="fill:#fff;stroke:#263238;stroke-linecap:round;stroke-linejoin:round"></ellipse><path d="M299.16,256.75a49.77,49.77,0,0,0-1.45,5.58c0,.8-.19,3.19-2.06,2.65s-1.31-10.09-1.07-11.15,4.79,2.37,4.79,2.37" style="fill:#fff;stroke:#263238;stroke-linecap:round;stroke-linejoin:round"></path><path d="M238.46,248.29a11.89,11.89,0,0,0,5.42,1.47c2.94,0,8.31-1,10.28-.49s7,6.85,7,6.85,1.5,1.47.79,2.21-2.16,2-3.16,1.22-6-4.9-6-4.9l-12.61,5.15L235,257.1Z" style="fill:#fff;stroke:#263238;stroke-linecap:round;stroke-linejoin:round"></path><path d="M219.15,171.12s-8.31,1-9.72,3.18-24.18,52.18-24.13,54.39,45.53,38,45.53,38L240.65,248l-24.57-22.78,10.66-24.74" style="fill:#fff;stroke:#263238;stroke-linecap:round;stroke-linejoin:round"></path><polyline points="234.48 275.72 258.5 276.21 258.38 261.27" style="fill:none;stroke:#263238;stroke-linecap:round;stroke-linejoin:round"></polyline><line x1="240.21" y1="259.8" x2="233.86" y2="262.17" style="fill:none;stroke:#263238;stroke-linecap:round;stroke-linejoin:round"></line><path d="M247.45,136.82s2.73,21.32,4.53,24.5,14.6,15.92,14.6,15.92,4-14.69,4.45-18.12.8-17.15.8-17.15l-24.43-6.86Z" style="fill:#fff;stroke:#263238;stroke-linecap:round;stroke-linejoin:round"></path><path d="M247.45,136.82s.32,2.5.81,5.91a24.53,24.53,0,0,0,6.48,4.34c3.15,1.39,11.55,2.17,16.86,1.55.14-3.59.23-6.65.23-6.65l-24.43-6.86Z" style="fill:#263238;stroke:#263238;stroke-linecap:round;stroke-linejoin:round"></path><path d="M240.37,118.21s-3.27-3.43-4.89.48,2,9.8,3.93,10.05a8.52,8.52,0,0,0,3.42-.25s1.37,5.64,2.63,7.35a25.68,25.68,0,0,0,9.28,7.34c4.46,2,19.39,2.71,21.28,0s1.78-17.15,1.75-18.37-.24-18.68-.24-18.68,1.34-6.06-.48-10.23-20.09-10-24.68-7.59-9.88,6.61-10.24,12-.14,14.21-.14,14.21Z" style="fill:#fff;stroke:#263238;stroke-linecap:round;stroke-linejoin:round"></path><path d="M267.37,110.61s3.05,14,2.35,15.68-2.89,1.71-5.63.24-1.31-3.43-1.31-3.43" style="fill:none;stroke:#263238;stroke-linecap:round;stroke-linejoin:round"></path><path d="M256.75,126.78s1.32,3.67,3.77,3.92,8.6.73,8.6.73" style="fill:none;stroke:#263238;stroke-linecap:round;stroke-linejoin:round"></path><path d="M248,111.1l.39,5.88s2.24,1.23,7.38,1.23,6.83-1.23,6.83-1.23l-.14-5.88S255,106.69,248,111.1Z" style="fill:none;stroke:#263238;stroke-linecap:round;stroke-linejoin:round"></path><path d="M267.39,111.1l1.86,6.13s.76,1,5.91,1S282,117,282,117l-.15-5.88S274.38,106.69,267.39,111.1Z" style="fill:none;stroke:#263238;stroke-linecap:round;stroke-linejoin:round"></path><line x1="262.49" y1="111.1" x2="267.39" y2="111.1" style="fill:none;stroke:#263238;stroke-linecap:round;stroke-linejoin:round"></line><line x1="248.03" y1="111.1" x2="238.37" y2="116.74" style="fill:none;stroke:#263238;stroke-linecap:round;stroke-linejoin:round"></line><path d="M250.41,108.16s2.62-2.94,8.56-.49" style="fill:none;stroke:#263238;stroke-linecap:round;stroke-linejoin:round"></path><path d="M268.29,108.16a6,6,0,0,1,6.35-.73" style="fill:none;stroke:#263238;stroke-linecap:round;stroke-linejoin:round"></path><path d="M256.67,113.8c0,1.08-.39,2-.93,2s-1-.88-1-2,.39-2,.94-2S256.65,112.71,256.67,113.8Z" style="fill:#263238"></path><path d="M272.35,113.55c0,1.08-.39,2-.93,2s-1-.88-1-2,.39-2,.93-2S272.32,112.47,272.35,113.55Z" style="fill:#263238"></path><path d="M255.57,90.89S257.93,96.1,255,98a5.94,5.94,0,0,1-5.95,0,6.58,6.58,0,0,1,.19,7.44,41.31,41.31,0,0,1-5,6.69s.53,6.33-.57,7.07-4.1-.37-4.15-2.23-1.25-5.58-1.3-7.44-.91-6.7-.91-6.7-7.52-3.35-3.53-7.44,12.46-7.44,12.46-7.44.19-7.44,5.34-9.67,16.23-5.58,16.32-1.86a11.42,11.42,0,0,1-1,5.58s9.29-.37,15.77,6,6.26,12.28,2.91,12.28-4.44.74-4.44.74,6.41,3.72,3.11,5.58-6.7-.37-6.7-.37,1.42-2.6-2.76-6S255.57,90.89,255.57,90.89Z" style="fill:#263238;stroke:#263238;stroke-linecap:round;stroke-linejoin:round"></path></g></svg>